<svg id="solid" height="512" viewBox="0 0 512 512" width="512" xmlns="http://www.w3.org/2000/svg"><path d="m454.206 193.014-87.725-87.725a31.829 31.829 0 0 0 -44.962 0l-22.2 22.205 132.681 132.686 22.206-22.205a31.828 31.828 0 0 0 0-44.961zm-8.549 28.137-16 16-11.314-11.314 10.344-10.343-10.344-10.343 11.314-11.314 16 16a8 8 0 0 1 0 11.314z"/><path d="m333.657 333.151-11.314-11.314 74.343-74.343-108.686-108.686-92.687 92.686 18.344 18.343-11.314 11.314-18.188-18.188-69.028 72.849a40.048 40.048 0 0 0 28.987 67.682h164.572l8-8-98.343-98.343 11.314-11.314 98.343 98.344 92.686-92.687-12.686-12.686zm-141.657-37.657h-16v16h-16v-16h16v-16h16z"/><path d="m16 415.494h480v16h-480z"/><path d="m72 383.494h16v16h-16z"/><path d="m44 354.524h16v33.941h-16z" transform="matrix(.707 -.707 .707 .707 -247.465 145.591)"/><path d="m413.657 369.837a8 8 0 0 0 -11.314 0l-10.343 10.344-10.343-10.344a8 8 0 0 0 -11.314 0l-16 16 11.314 11.314 10.343-10.343 10.343 10.343a8 8 0 0 0 11.314 0l10.343-10.343 10.343 10.343a8 8 0 0 0 5.657 2.343h48v-16h-44.686z"/></svg>